<svg viewBox="0 0 200 200" xmlns="http://www.w3.org/2000/svg">
  <defs>
    <linearGradient id="gradient1" x1="0%" y1="0%" x2="100%" y2="100%">
      <stop offset="0%" style="stop-color:rgba(135,206,235,0.3);stop-opacity:1" />
      <stop offset="100%" style="stop-color:rgba(79,195,247,0.3);stop-opacity:1" />
    </linearGradient>
  </defs>
  <path fill="url(#gradient1)" d="M44.7,-76.4C58.8,-69.2,71.8,-59.3,79.6,-45.8C87.4,-32.3,89.9,-16.1,89.9,-0.1C89.8,16,87.1,32,78.8,45.4C70.5,58.8,56.7,69.6,41.2,76.8C25.6,84,8.3,87.6,-8.8,84.4C-26,81.2,-43.1,70.3,-58.4,55.8C-73.7,41.3,-87.3,23.2,-89.2,3.9C-91.1,-15.4,-81.3,-35.9,-67.8,-52.8C-54.3,-69.7,-37.1,-83,-19.5,-87.1C-1.9,-91.2,16.1,-85.9,30.4,-78.8C44.7,-71.7,55.3,-62.8,44.7,-76.4Z" transform="translate(100 100)" />
</svg>
