<svg viewBox="0 0 200 200" xmlns="http://www.w3.org/2000/svg">
  <defs>
    <linearGradient id="gradient2" x1="0%" y1="0%" x2="100%" y2="100%">
      <stop offset="0%" style="stop-color:rgba(129,199,132,0.3);stop-opacity:1" />
      <stop offset="100%" style="stop-color:rgba(77,208,225,0.3);stop-opacity:1" />
    </linearGradient>
  </defs>
  <path fill="url(#gradient2)" d="M37.4,-60.3C49.5,-54.7,61.1,-45.5,69.4,-33.4C77.7,-21.3,82.6,-6.3,82.1,8.9C81.6,24.1,75.7,39.5,66.2,52.4C56.7,65.3,43.6,75.7,28.9,82.1C14.2,88.5,-2.1,90.9,-18.8,88.3C-35.5,85.7,-52.6,78.1,-65.2,65.8C-77.8,53.5,-85.9,36.5,-88.5,18.7C-91.1,0.9,-88.2,-17.7,-80.9,-34.1C-73.6,-50.5,-61.9,-64.7,-47.6,-69.3C-33.3,-73.9,-16.7,-68.9,-1.3,-66.8C14.1,-64.7,28.2,-65.5,37.4,-60.3Z" transform="translate(100 100)" />
</svg>
